<?xml version="1.0" standalone="no"?>
<!DOCTYPE svg PUBLIC "-//W3C//DTD SVG 20010904//EN"
 "http://www.w3.org/TR/2001/REC-SVG-20010904/DTD/svg10.dtd">
<svg version="1.0" xmlns="http://www.w3.org/2000/svg"
 width="500.000000pt" height="500.000000pt" viewBox="0 0 500.000000 500.000000"
 preserveAspectRatio="xMidYMid meet">

<g transform="translate(0.000000,500.000000) scale(0.100000,-0.100000)"
fill="#000000" stroke="none">
<path d="M0 2500 l0 -2500 2500 0 2500 0 0 2500 0 2500 -2500 0 -2500 0 0
-2500z m2490 0 l0 -390 -820 0 -820 0 0 390 0 390 820 0 820 0 0 -390z m385
116 c37 -16 43 -27 22 -44 -8 -7 -18 -6 -31 4 -23 17 -69 18 -98 3 -11 -6 -26
-26 -34 -45 -12 -29 -12 -39 0 -68 8 -19 23 -39 34 -45 29 -15 75 -14 98 3 19
14 44 6 44 -15 0 -15 -58 -39 -95 -39 -102 0 -164 99 -117 189 31 62 107 86
177 57z m294 -1 c52 -26 61 -109 16 -143 l-23 -17 30 -42 29 -43 -24 0 c-17 0
-32 12 -51 40 -22 34 -32 40 -61 40 -34 0 -35 -1 -35 -40 0 -33 -3 -40 -20
-40 -19 0 -20 7 -20 130 l0 130 65 0 c39 0 78 -6 94 -15z m332 -115 c57 -129
57 -130 32 -130 -18 0 -27 8 -34 30 -11 29 -13 30 -78 30 -65 0 -67 -1 -78
-30 -8 -20 -18 -30 -32 -30 -12 0 -21 2 -21 4 0 4 28 71 89 209 16 36 25 47
43 47 20 0 31 -18 79 -130z m309 110 c0 -18 -7 -20 -66 -20 l-65 0 3 -37 3
-38 58 -3 c41 -2 57 -7 57 -17 0 -10 -16 -15 -57 -17 l-58 -3 -3 -52 c-3 -45
-6 -53 -23 -53 -18 0 -19 8 -19 130 l0 130 85 0 c78 0 85 -2 85 -20z m260 0
c0 -17 -7 -20 -40 -20 l-40 0 0 -110 c0 -103 -1 -110 -20 -110 -19 0 -20 7
-20 110 l0 110 -40 0 c-33 0 -40 3 -40 20 0 19 7 20 100 20 93 0 100 -1 100
-20z"/>
<path d="M1020 2511 c0 -65 3 -81 15 -81 9 0 15 9 15 24 0 43 23 48 49 10 13
-19 30 -34 37 -34 19 0 18 7 -11 44 -31 41 -31 41 1 83 36 48 6 43 -39 -6
l-36 -40 -3 36 c-2 20 -9 38 -15 41 -10 3 -13 -17 -13 -77z"/>
<path d="M1210 2510 c0 -47 4 -80 10 -80 6 0 10 14 10 30 0 29 2 30 45 30 43
0 45 -1 45 -30 0 -16 5 -30 10 -30 6 0 10 33 10 80 0 47 -4 80 -10 80 -5 0
-10 -16 -10 -35 0 -35 0 -35 -45 -35 -45 0 -45 0 -45 35 0 19 -4 35 -10 35 -6
0 -10 -33 -10 -80z"/>
<path d="M1410 2531 c0 -48 4 -65 20 -81 24 -24 72 -26 94 -5 29 29 35 134 9
143 -10 3 -13 -13 -13 -57 0 -56 -2 -63 -25 -73 -37 -17 -53 3 -57 70 -4 80
-28 83 -28 3z"/>
<path d="M1610 2510 c0 -64 3 -80 15 -80 11 0 15 13 16 53 l0 52 22 -42 c11
-24 26 -43 32 -43 6 0 21 19 32 43 l22 42 0 -52 c1 -41 5 -53 16 -53 13 0 15
13 13 78 -4 94 -20 101 -59 28 l-27 -49 -26 51 c-40 78 -56 70 -56 -28z"/>
<path d="M1893 2578 c-5 -7 -22 -42 -37 -77 -27 -64 -26 -95 1 -53 21 30 75
30 95 1 8 -12 19 -20 25 -18 12 4 -49 151 -65 157 -5 1 -13 -3 -19 -10z m37
-75 c0 -7 -11 -13 -25 -13 -29 0 -29 0 -13 35 11 25 13 26 25 9 7 -10 13 -24
13 -31z"/>
<path d="M2040 2510 l0 -80 45 0 c52 0 61 17 13 22 l-33 3 -3 68 c-4 94 -22
84 -22 -13z"/>
<path d="M2223 2580 c-80 -32 -55 -150 32 -150 89 0 112 119 29 150 -29 12
-32 12 -61 0z m72 -36 c23 -24 15 -66 -16 -83 -24 -13 -29 -13 -53 2 -30 20
-35 57 -10 81 20 21 58 20 79 0z"/>
<path d="M3050 2540 l0 -50 48 0 c55 0 72 12 72 52 0 33 -24 48 -79 48 l-41 0
0 -50z"/>
<path d="M3396 2527 c-9 -23 -16 -46 -16 -50 0 -4 20 -7 44 -7 l44 0 -21 50
c-11 28 -24 50 -28 50 -3 0 -14 -19 -23 -43z"/>
</g>
</svg>
